HIERARCHY
ROOT Hips
{
	OFFSET -3.958830 18.904000 13.208200
	CHANNELS 6 Xposition Yposition Zposition Zrotation Yrotation Xrotation 
	JOINT LHipJoint
	{
		OFFSET 0.000000 0.000000 0.000000
		CHANNELS 3 Zrotation Yrotation Xrotation
		JOINT LeftUpLeg
		{
			OFFSET 1.800000 -1.400000 0.085000
			CHANNELS 3 Zrotation Yrotation Xrotation
			JOINT LeftLeg
			{
				OFFSET 2.215000 -6.000000 0.000000
				CHANNELS 3 Zrotation Yrotation Xrotation
				JOINT LeftFoot
				{
					OFFSET 2.500000 -6.900000 0.000000
					CHANNELS 3 Zrotation Yrotation Xrotation
					JOINT LeftToeBase
					{
						OFFSET 0.200000 -0.500000 1.950000
						CHANNELS 3 Zrotation Yrotation Xrotation
						End Site
						{
							OFFSET 0.000000 0.000000 0.000000
						}
					}
				}
			}
		}
	}
	JOINT RHipJoint
	{
		OFFSET 0.000000 0.000000 0.000000
		CHANNELS 3 Zrotation Yrotation Xrotation
		JOINT RightUpLeg
		{
			OFFSET -1.800000 -1.400000 0.085000
			CHANNELS 3 Zrotation Yrotation Xrotation
			JOINT RightLeg
			{
				OFFSET -2.215000 -6.000000 0.000000
				CHANNELS 3 Zrotation Yrotation Xrotation
				JOINT RightFoot
				{
					OFFSET -2.500000 -6.900000 0.000000
					CHANNELS 3 Zrotation Yrotation Xrotation
					JOINT RightToeBase
					{
						OFFSET -0.200000 -0.500000 1.950000
						CHANNELS 3 Zrotation Yrotation Xrotation
						End Site
						{
							OFFSET 0.000000 0.000000 0.000000
						}
					}
				}
			}
		}
	}
	JOINT LowerBack
	{
		OFFSET 0.000000 0.000000 0.000000
		CHANNELS 3 Zrotation Yrotation Xrotation
		JOINT Spine
		{
			OFFSET -0.087000 1.940000 -0.288900
			CHANNELS 3 Zrotation Yrotation Xrotation
			JOINT Spine1
			{
				OFFSET 0.000000 1.950000 0.060000
				CHANNELS 3 Zrotation Yrotation Xrotation
				JOINT Neck
				{
					OFFSET 0.000000 0.000000 0.000000
					CHANNELS 3 Zrotation Yrotation Xrotation
					JOINT Neck1
					{
						OFFSET 0.000000 1.600000 0.340000
						CHANNELS 3 Zrotation Yrotation Xrotation
						JOINT Head
						{
							OFFSET 0.000000 1.667000 -0.240000
							CHANNELS 3 Zrotation Yrotation Xrotation
							End Site
							{
								OFFSET 0.000000 0.000000 0.000000
							}
						}
					}
				}
				JOINT LeftShoulder
				{
					OFFSET 0.000000 0.000000 0.000000
					CHANNELS 3 Zrotation Yrotation Xrotation
					JOINT LeftArm
					{
						OFFSET 2.700000 1.550000 -0.730000
						CHANNELS 3 Zrotation Yrotation Xrotation
						JOINT LeftForeArm
						{
							OFFSET 5.450000 0.000000 0.000000
							CHANNELS 3 Zrotation Yrotation Xrotation
							JOINT LeftHand
							{
								OFFSET 3.450000 0.000000 0.000000
								CHANNELS 3 Zrotation Yrotation Xrotation
								JOINT LeftHandIndex1
								{
									OFFSET 0.750000 0.000000 0.000000
									CHANNELS 3 Zrotation Yrotation Xrotation
									End Site
									{
										OFFSET 0.000000 0.000000 0.000000
									}
								}
							}
						}
					}
				}
				JOINT RightShoulder
				{
					OFFSET 0.000000 0.000000 0.000000
					CHANNELS 3 Zrotation Yrotation Xrotation
					JOINT RightArm
					{
						OFFSET -2.700000 1.550000 -0.730000
						CHANNELS 3 Zrotation Yrotation Xrotation
						JOINT RightForeArm
						{
							OFFSET -5.450000 0.000000 0.000000
							CHANNELS 3 Zrotation Yrotation Xrotation
							JOINT RightHand
							{
								OFFSET -3.450000 0.000000 0.000000
								CHANNELS 3 Zrotation Yrotation Xrotation
								JOINT RightHandIndex1
								{
									OFFSET -0.750000 0.000000 0.000000
									CHANNELS 3 Zrotation Yrotation Xrotation
									End Site
									{
										OFFSET 0.000000 0.000000 0.000000
									}
								}
							}
						}
					}
				}
			}
		}
	}
}
MOTION
Frames: 4
Frame Time: 0.016667
-0.467460 17.084630 -3.029290 -1.080578 -12.257929 1.471738 -15.466736 12.543642 3.483381 -7.346409 -5.805447 -12.451388 -11.726794 14.153591 45.398298 0.622407 9.958680 1.470592 0.082050 -0.339790 0.025050 18.297960 -8.048698 4.728371 -5.905611 11.028487 -41.677406 30.949750 -18.890371 38.183085 -1.546469 -8.365004 1.453335 -0.213020 0.716250 0.600960 -3.230234 -4.214512 -8.829177 17.832231 -7.020689 34.893382 -1.948040 -1.319706 -6.827503 4.046920 -5.303542 -6.371336 -9.238791 6.435043 23.571705 -9.607180 6.946740 -20.525430 -17.851725 11.901305 -0.796928 -41.969724 7.569370 -4.035621 -140.778179 -69.721128 117.556470 -3.833212 3.136141 0.906040 0.264100 0.116230 0.336090 9.712995 -7.682503 2.713182 48.330274 -6.080595 -14.612568 126.731529 70.685421 99.520081 1.844700 -0.442852 -0.396370 0.418360 0.276520 -0.090340 
-0.475830 17.023580 -3.020120 -0.942874 -12.673891 1.636822 -15.459459 12.538655 3.455878 -7.788302 -5.533293 -12.028159 -11.204855 13.922855 45.331570 0.582026 9.920901 1.485199 0.037790 -0.379860 -0.037200 18.310031 -8.068940 4.745858 -5.372269 11.317501 -41.776831 30.341708 -18.740637 38.660200 -1.518460 -8.376070 1.456140 -0.216020 0.767400 0.591440 -3.259186 -4.144092 -8.808289 17.534567 -6.681678 34.378274 -1.714312 -1.178935 -6.537872 3.670248 -5.334873 -6.559273 -9.270469 6.519892 23.149985 -8.483200 6.581310 -19.592820 -16.666153 12.265737 -0.535043 -42.479194 7.590554 -3.454421 -143.559399 -68.565535 120.030878 -3.863310 3.186897 0.896260 0.291650 0.077660 0.331630 9.312085 -7.993356 2.847974 48.325848 -6.674131 -14.137083 131.157832 69.437400 103.596404 1.746861 -0.733905 -0.425450 0.444700 0.323730 -0.082530 
-0.498360 16.903280 -3.011520 -0.599142 -13.257888 2.218342 -15.464389 12.550137 3.420974 -8.470372 -5.164669 -11.613863 -10.345465 13.443350 45.014726 0.526278 9.810114 1.540127 -0.005430 -0.438560 -0.081940 18.312208 -8.079551 4.766302 -4.265002 11.756439 -41.746306 29.762611 -18.432624 38.848170 -1.472045 -8.336604 1.484105 -0.226320 0.839470 0.594970 -3.255703 -4.110700 -8.782312 16.600839 -6.080788 32.958543 -1.192406 -1.087839 -6.104362 3.312025 -5.192809 -6.781971 -8.983465 6.937727 22.479030 -7.955100 6.853040 -17.379540 -15.304290 12.893937 -0.168189 -42.615841 8.385544 -3.043635 -150.024000 -67.624771 127.964017 -3.909051 3.259218 0.870910 0.347820 0.020950 0.333370 8.773890 -8.706341 3.003663 48.020891 -7.428286 -12.725443 138.400058 66.737204 109.629616 1.649365 -1.150136 -0.458310 0.460360 0.362950 -0.080890 
-0.510810 16.824180 -2.985630 -0.380189 -13.237871 2.414423 -15.455472 12.588161 3.388134 -8.578110 -4.724163 -10.736109 -10.191567 13.264025 44.271257 0.540125 9.685548 1.599171 0.002470 -0.446540 -0.064750 18.311086 -8.161623 4.731604 -3.723681 11.709455 -41.047394 29.396817 -18.140199 38.528352 -1.446430 -8.243976 1.519802 -0.241050 0.845900 0.620710 -3.259615 -4.024529 -8.752756 16.251129 -5.727833 31.442366 -1.192950 -1.170303 -5.154623 3.428915 -4.710018 -7.280601 -8.155179 6.708343 22.555178 -8.280780 7.305630 -15.726070 -14.743691 12.377861 0.341398 -42.718369 9.281803 -3.300401 -152.950914 -66.840139 131.002308 -3.915374 3.324806 0.846570 0.370460 0.016900 0.347390 8.034037 -8.565675 3.528003 49.012245 -8.129062 -12.209785 141.049442 64.737940 110.080866 1.657539 -1.348209 -0.438580 0.424210 0.339920 -0.077630 
